<svg id="cancel_view" data-name="cancel view" xmlns="http://www.w3.org/2000/svg" xmlns:xlink="http://www.w3.org/1999/xlink" width="17.586" height="15" viewBox="0 0 17.586 15">
  <defs>
    <clipPath id="clip-path">
      <rect id="Rectángulo_9" data-name="Rectángulo 9" width="17.586" height="15" fill="none"/>
    </clipPath>
  </defs>
  <g id="Grupo_13" data-name="Grupo 13" opacity="0.7" clip-path="url(#clip-path)">
    <path id="Trazado_35" data-name="Trazado 35" d="M1.8,0,15.8,13.988l-1.029.99h-.034c-.039-.047-.076-.1-.119-.139-.777-.78-1.559-1.555-2.33-2.341a.3.3,0,0,0-.376-.08,9.148,9.148,0,0,1-5.391.336,9.041,9.041,0,0,1-3.569-1.717,9.3,9.3,0,0,1-2.761-3.5C.133,7.405.065,7.279,0,7.15v-.1a.623.623,0,0,0,.062-.1A9.3,9.3,0,0,1,2.818,3.266c.038-.031.073-.066.128-.116L.788.994C.969.817,1.145.65,1.315.477c.153-.155.3-.317.447-.476ZM5.161,5.375A3.893,3.893,0,0,0,10.389,10.6c-.358-.357-.717-.707-1.066-1.067A.371.371,0,0,0,9,9.424a3.17,3.17,0,0,1-.838-.03A2.343,2.343,0,0,1,6.34,6.7.241.241,0,0,0,6.3,6.525c-.373-.384-.754-.761-1.144-1.15" transform="translate(0.238 0.023)" fill="#fff"/>
    <path id="Trazado_36" data-name="Trazado 36" d="M174.849,40.855c-.059.119-.121.236-.176.356a9.386,9.386,0,0,1-2.526,3.324c-.04-.035-.079-.065-.113-.1-.7-.7-1.4-1.4-2.1-2.093a.2.2,0,0,1-.053-.249,3.925,3.925,0,0,0-2.92-5.155,3.711,3.711,0,0,0-2.066.146.226.226,0,0,1-.279-.06c-.482-.492-.973-.975-1.46-1.462-.035-.035-.068-.073-.133-.144.472-.124.912-.266,1.363-.352a9.318,9.318,0,0,1,10.32,5.4c.043.1.094.188.142.282Z" transform="translate(-157.263 -33.682)" fill="#fff"/>
    <path id="Trazado_37" data-name="Trazado 37" d="M253.723,139.887a2.3,2.3,0,0,1,2.412,2.413l-2.412-2.413" transform="translate(-244.888 -135.119)" fill="#fff"/>
  </g>
</svg>
