<svg id="logo-blanco" xmlns="http://www.w3.org/2000/svg" width="133.469" height="100.178" viewBox="0 0 133.469 100.178">
  <g id="Grupo_31" data-name="Grupo 31">
    <path id="Trazado_101" data-name="Trazado 101" d="M11.726,85.464C8.745,84.888,5.7,84.038,5.7,82.107c0-2.1,2.323-3.2,4.618-3.2a5.621,5.621,0,0,1,5.021,2.838l.122.2,3.791-2.507-.1-.181c-1.583-2.963-4.626-4.595-8.572-4.595-4.691,0-9.44,2.574-9.44,7.491,0,5.389,4.305,6.356,8.864,7.382,2.783.611,5.088,1.31,5.088,3.675,0,2.463-2.61,3.565-5.2,3.565-2.488,0-4.269-.936-6.142-3.233l-.14-.17L0,96.169l.123.177c2.284,3.278,5.206,4.677,9.768,4.677,4.869,0,10.07-2.093,10.074-7.965,0-5.291-4.164-6.806-8.239-7.593" transform="translate(0 -6.663)" fill="#fff"/>
    <path id="Trazado_102" data-name="Trazado 102" d="M40.774,74.667a11.583,11.583,0,0,0-8.725,3.962V75.3H27.491v31.54h4.558V96.434a11.132,11.132,0,0,0,9.357,4.587c7.035,0,12.545-5.789,12.545-13.179,0-7.757-5.418-13.176-13.177-13.176m8.3,13.173c0,5.261-3.5,8.935-8.514,8.935S32.046,93.1,32.046,87.84s3.5-8.935,8.513-8.935v.005c5.017,0,8.514,3.668,8.514,8.929" transform="translate(-2.453 -6.663)" fill="#fff"/>
    <path id="Trazado_103" data-name="Trazado 103" d="M83.156,95.9V85.317c0-7.266-3.351-10.65-10.546-10.65a13.907,13.907,0,0,0-9.954,3.859l-.153.156,2.885,3,.162-.149a10.648,10.648,0,0,1,7.16-2.622c3.792,0,5.882,1.845,5.882,5.2v.513H77.24c-4.716,0-15.759,0-15.758,8.857,0,4.512,3.772,7.544,9.387,7.544a9.546,9.546,0,0,0,7.995-3.968,15.283,15.283,0,0,0,.268,3.162l.042.174h4.393l-.045-.263a26.964,26.964,0,0,1-.365-4.228m-4.563-7.355v1.344c-.087,3.323-1.984,7.2-7.04,7.2-2.373,0-5.2-.7-5.2-4.035,0-3.73,4.544-4.513,8.356-4.513Z" transform="translate(-5.487 -6.663)" fill="#fff"/>
    <path id="Trazado_104" data-name="Trazado 104" d="M104.452,78.91a7.36,7.36,0,0,1,6.037,2.92l.149.18,3.613-3.2-.157-.169a12.7,12.7,0,0,0-9.642-3.969c-7.637,0-12.967,5.416-12.967,13.176s5.332,13.178,12.967,13.178A12.1,12.1,0,0,0,113.942,97l.141-.164-3.4-3.221-.151.209a6.927,6.927,0,0,1-6.08,2.961c-4.689,0-8.092-3.758-8.092-8.935,0-5.428,3.176-8.935,8.092-8.935" transform="translate(-8.164 -6.663)" fill="#fff"/>
    <path id="Trazado_105" data-name="Trazado 105" d="M144.119,87.793c0-8.1-4.565-13.125-11.914-13.125-7.452,0-12.862,5.542-12.862,13.176,0,7.76,5.227,13.179,12.707,13.179,4.914,0,8.35-1.6,11.126-5.195l.138-.178-3.46-2.7-.138.176a8.968,8.968,0,0,1-7.665,3.652,7.986,7.986,0,0,1-7.809-7.445h19.877Zm-4.883-2.384H124.256c.614-4.015,3.594-6.5,7.8-6.5s6.935,2.484,7.186,6.5" transform="translate(-10.65 -6.663)" fill="#fff"/>
    <path id="Trazado_106" data-name="Trazado 106" d="M106.163,16.354c-1.214,2.481-2.515,4.93-3.937,7.263A54.818,54.818,0,0,1,91.719,35.956a59.747,59.747,0,0,1-6.41,4.874c-1.113.745-2.262,1.433-3.416,2.1-.587.321-1.161.658-1.757.961l-.885.464-.9.442a65.1,65.1,0,0,1-14.992,5.16,3.628,3.628,0,0,0,.757,7.175,3.589,3.589,0,0,0,.763-.081,3.657,3.657,0,0,0,.378-.1l.011,0a71.467,71.467,0,0,0,15.742-7.41l.914-.583.9-.6c.6-.4,1.185-.826,1.775-1.24,1.162-.854,2.31-1.725,3.412-2.65a63.843,63.843,0,0,0,6.241-5.919,57.551,57.551,0,0,0,9.564-14.063c1.2-2.557,2.231-5.149,3.18-7.776.469-1.314.912-2.638,1.311-3.974a38.557,38.557,0,0,0,1.005-4.053,38.313,38.313,0,0,1-1.432,3.9c-.538,1.275-1.117,2.532-1.719,3.776" transform="translate(-5.399 -0.774)" fill="#fff"/>
    <path id="Trazado_107" data-name="Trazado 107" d="M91.922,48.927l-.112.093a70.594,70.594,0,0,1,9.517,2.379h.064l-3.821-7.742a64.955,64.955,0,0,1-5.649,5.27" transform="translate(-8.193 -3.896)" fill="#fff"/>
    <path id="Trazado_108" data-name="Trazado 108" d="M51.631,28.75a51.485,51.485,0,0,1,9.426-6.726l2.7-5.335q-.422.245-.841.5A54.958,54.958,0,0,0,50.4,27.534c-1.782,2.026-3.418,4.128-4.988,6.283-.781,1.081-1.539,2.177-2.261,3.3a36.68,36.68,0,0,0-2,3.448A36.442,36.442,0,0,1,43.5,37.367c.832-1.026,1.7-2.025,2.583-3,1.774-1.952,3.619-3.852,5.546-5.612" transform="translate(-3.672 -1.489)" fill="#fff"/>
    <path id="Trazado_109" data-name="Trazado 109" d="M76.658,42.462l.877-.433.867-.454.009,0,.01-.005c.365-.185.727-.388,1.109-.6.193-.108.387-.217.581-.323,1-.578,2.165-1.271,3.3-2.033l.007,0,.007,0a58.489,58.489,0,0,0,6.219-4.73c.3-.266.6-.536.9-.808L74.233,0l-24.1,47.583c6.006-2.277,14.507-3.607,23.311-3.66q1.635-.686,3.218-1.46" transform="translate(-4.474)" fill="#fff"/>
  </g>
</svg>
