<svg id="pass" xmlns="http://www.w3.org/2000/svg" xmlns:xlink="http://www.w3.org/1999/xlink" width="13.839" height="18" viewBox="0 0 13.839 18">
  <defs>
    <clipPath id="clip-path">
      <rect id="Rectángulo_3" data-name="Rectángulo 3" width="13.839" height="18" fill="none"/>
    </clipPath>
  </defs>
  <g id="Grupo_4" data-name="Grupo 4" clip-path="url(#clip-path)">
    <path id="Trazado_3" data-name="Trazado 3" d="M10.044,7.271a20.859,20.859,0,0,0-.115-2.488A2.99,2.99,0,0,0,7.047,2.359,3.059,3.059,0,0,0,4.082,4.573a6.206,6.206,0,0,0-.145.9c-.05.41-.191.551-.607.557-.4.006-.791.007-1.186,0-.411-.008-.571-.173-.574-.574A5.372,5.372,0,0,1,11.791,3.068a6.019,6.019,0,0,1,.587,2.644c0,.506,0,1.012,0,1.539.1.022.185.044.271.059a1.384,1.384,0,0,1,1.16,1.2,3.157,3.157,0,0,1,.028.394q0,3.74,0,7.481a1.446,1.446,0,0,1-1.05,1.552,2.4,2.4,0,0,1-.6.062Q6.926,18,1.667,18A1.476,1.476,0,0,1,0,16.336q0-3.71,0-7.42A1.471,1.471,0,0,1,1.633,7.278L9.6,7.271h.446M6.3,14.164c0,.253,0,.506,0,.76.009.466.257.747.653.752.426.005.671-.26.678-.752.007-.476.01-.952,0-1.428a.729.729,0,0,1,.256-.611,1.314,1.314,0,0,0,.068-1.854,1.337,1.337,0,0,0-1.883-.106,1.281,1.281,0,0,0-.11,1.868,1.054,1.054,0,0,1,.34.915c-.014.151,0,.3,0,.456" transform="translate(0 0)" fill="#fff"/>
  </g>
</svg>
