<svg xmlns="http://www.w3.org/2000/svg" xmlns:xlink="http://www.w3.org/1999/xlink" width="300" height="93.281" viewBox="0 0 300 93.281">
  <defs>
    <clipPath id="clip-path">
      <rect id="Rect치ngulo_12" data-name="Rect치ngulo 12" width="300" height="93.281" fill="none"/>
    </clipPath>
  </defs>
  <g id="Grupo_16" data-name="Grupo 16" transform="translate(0 0)">
    <g id="Grupo_16-2" data-name="Grupo 16" transform="translate(0 0)" clip-path="url(#clip-path)">
      <path id="Trazado_38" data-name="Trazado 38" d="M172.908,78.708v-.035c0-.425-.64-.578-1.191-.578a1.608,1.608,0,0,0-1.332.483,9.972,9.972,0,0,1-1.1,1.392c-1.411,1.257-4.875,3.562-6.3,3.562-.345,0-.345-.113-.345-.33,0-1.361,3.3-6.205,5.435-7.594.281-.184.4-.319.4-.447,0-.52-1.258-.542-1.275-.542a1.25,1.25,0,0,0-1.086.343c-.053.046-.113.1-.2.165a24.431,24.431,0,0,0-2.288,2.795c-1.527,2.164-2.3,4.024-2.3,5.534,0,.015.206,1.63,1.354,1.63.069,0,1.7-.033,5.5-2.954l.017-.008v0c-.183.325-.556,1.04-1.03,1.938-.788,1.508-1.871,3.579-2.673,5.011a2.875,2.875,0,0,1-.4.547,4.28,4.28,0,0,0-.875,1.382,4.547,4.547,0,0,0-.277,1.409c0,.215,0,.867.427.867.164,0,.31-.1.485-.346.155-.27.592-1.013,1.058-1.8.736-1.234,1.568-2.634,1.677-2.868,1.412-2.258,2.288-3.712,2.928-4.78a27.234,27.234,0,0,1,3.367-4.75Z" transform="translate(10.686 0)" fill="#c0d200"/>
      <path id="Trazado_39" data-name="Trazado 39" d="M179.686,78.023a5.181,5.181,0,0,0-1.144-.531,3.683,3.683,0,0,1,.569-.387c.058-.015.239-.069.239-.208a1.709,1.709,0,0,0-1.548-.868c-.93,0-5.632,3.771-5.632,7.172a1.956,1.956,0,0,0,2.121,1.919c.834,0,3.761-.858,6.158-4.651a1.81,1.81,0,0,0,.329-1.107c0-.553-.6-1.033-1.092-1.339m-2.112.176c.22,0,.965.431.965.908A5.558,5.558,0,0,1,176.811,82a5.267,5.267,0,0,1-2.6,1.785c-.184,0-.386-.061-.386-.475,0-2.246,3.307-5.11,3.751-5.11" transform="translate(11.404 0)" fill="#c0d200"/>
      <path id="Trazado_40" data-name="Trazado 40" d="M191.246,78.963c0-.3-.367-.33-.846-.359a1.942,1.942,0,0,0-1.557.546c-2.47,2.943-6.166,4.562-6.941,4.562-.2,0-.2-.073-.2-.17.28-1.762,2.433-4.5,3.376-5.483.192-.194.39-.372.565-.527a3.05,3.05,0,0,0,.538-.547l.01-.022v-.027a1.192,1.192,0,0,0-1.118-1.159.7.7,0,0,0-.389.1c-.045.04-4.357,4.436-4.357,7.537,0,.354.062,2.1,1.31,2.1.613,0,1.472-.26,5.78-3.5a4.951,4.951,0,0,0-.336,1.471c0,.278.1.8.463.8.022,0,.243-.012.334-.319a30.4,30.4,0,0,1,2.271-3.493c.1-.123.219-.26.341-.4.461-.524.758-.884.758-1.118" transform="translate(11.944 0)" fill="#c0d200"/>
      <path id="Trazado_41" data-name="Trazado 41" d="M202.45,75.439a11.02,11.02,0,0,0-3.914.933,21.285,21.285,0,0,0-3.852,2.258,4,4,0,0,0,.527-1.472,1.217,1.217,0,0,0-.991-1.054.826.826,0,0,0-.252-.07.271.271,0,0,0-.288.274v.128c0,.355-.128,1.7-1.74,4.166,0,.009-.565.864-1.192,1.747a5.273,5.273,0,0,0-1.114,2.2c0,.2.1.932.61.932h.035l.027-.015a.571.571,0,0,0,.219-.279,41.648,41.648,0,0,1,2.718-3.458,30.237,30.237,0,0,1,8.988-5.751l.032-.011c.4-.24.4-.349.4-.388s-.012-.139-.214-.139" transform="translate(12.56 0)" fill="#c0d200"/>
      <path id="Trazado_42" data-name="Trazado 42" d="M216.328,78.963a1.8,1.8,0,0,0-1.532.574c-.9,1.943-5.334,3.086-5.729,3.086-.084,0-.232-.007-.232-.075,0-.664,1.219-1.771,3.345-3.026a9.054,9.054,0,0,1,4.536-1.647,2.807,2.807,0,0,1,1.146.243.538.538,0,0,0,.207.046.248.248,0,0,0,.269-.256l-.005-.03c-.017-.056-.514-1.378-1.582-1.378-3.822,0-9.3,3.84-9.3,6.518,0,.13.022,1.271.737,1.271.623,0,2.076-.252,4.85-1.94a.439.439,0,0,1,.149-.055c-.36.888-3.264,6.274-4.9,7.871l-.069.066c-.837.837-1.39,1.406-1.429,1.7v.026a.457.457,0,0,0,.5.345c.691,0,1.44-.489,2.3-1.5.328-.441.617-.856.851-1.236,1.8-2.648,4.422-6.6,6.421-10.27l.026-.048-.021-.046a.569.569,0,0,0-.532-.244" transform="translate(13.696 0)" fill="#c0d200"/>
      <path id="Trazado_43" data-name="Trazado 43" d="M227.165,78.6a1.935,1.935,0,0,0-1.559.547c-2.47,2.942-6.164,4.562-6.942,4.562-.2,0-.2-.073-.2-.17.273-1.769,2.429-4.507,3.371-5.483.2-.2.393-.376.568-.53a2.581,2.581,0,0,0,.527-.545l.014-.022v-.026a1.187,1.187,0,0,0-1.114-1.158.737.737,0,0,0-.395.1c-.044.039-4.355,4.436-4.355,7.537,0,.354.06,2.1,1.309,2.1.613,0,1.469-.26,5.779-3.5a5.035,5.035,0,0,0-.333,1.47c0,.279.1.8.466.8.022,0,.236-.012.333-.319a31.946,31.946,0,0,1,2.265-3.494c.1-.121.221-.259.342-.395.461-.524.764-.883.764-1.119,0-.3-.373-.329-.847-.359" transform="translate(14.379 0)" fill="#c0d200"/>
      <path id="Trazado_44" data-name="Trazado 44" d="M232.892,73.585c.011.065.1.634.5.634h.011l.009,0c.083-.013,2.025-.353,2.025-1.588,0-.506-.727-.506-1.043-.506a5.943,5.943,0,0,0-1.262.147l-.025.009a.868.868,0,0,0-.528.785c0,.084.067.153.132.23a.577.577,0,0,1,.18.291" transform="translate(15.405 0)" fill="#c0d200"/>
      <path id="Trazado_45" data-name="Trazado 45" d="M232.916,77.443c0-.275-.473-.458-.57-.494l-.041-.009c-1.628,0-1.995.374-2.067.48a5.165,5.165,0,0,0-.469.817c0,.011-.548,1.127-1,1.876a12.615,12.615,0,0,0-1.446,3.2c0,1.162.648,1.259.678,1.263l.019,0c.422,0,.969-1.447,1.177-2.047a22.564,22.564,0,0,1,2.946-4.211c.573-.429.772-.6.772-.881" transform="translate(15.057 0)" fill="#c0d200"/>
      <path id="Trazado_46" data-name="Trazado 46" d="M247.38,69.481l.013-.019v-.027c0-.553-.387-1.192-.886-1.192a.468.468,0,0,0-.328.117c-1.4,1.844-2.735,3.975-3.9,5.857a37.6,37.6,0,0,1-2.735,4.064c-3.4,4.054-6.7,5.138-7.018,5.138-.144,0-.182-.063-.192-.086.062-1.038,2.677-3.255,2.7-3.276a5.422,5.422,0,0,1,3.241-1.493c.535,0,.542-.312.542-.326v-.03l-.018-.023a2.058,2.058,0,0,0-1.719-1.03c-1.113,0-6.139,3.86-6.139,6.409a1.215,1.215,0,0,0,1.236,1.337,3.288,3.288,0,0,0,1.245-.333,16.294,16.294,0,0,0,4.246-2.923c0-.007.01-.01.019-.016-.264.36-1.837,2.547-1.837,3.419a1.291,1.291,0,0,0,1.117,1.228c.151,0,.348-.089.348-.508a1.621,1.621,0,0,1,.256-.745,64.262,64.262,0,0,1,6.749-10.935,36.407,36.407,0,0,0,3.06-4.607" transform="translate(15.296 0)" fill="#c0d200"/>
      <path id="Trazado_47" data-name="Trazado 47" d="M243.116,81.571a8.172,8.172,0,0,0,5.951-2.8,2.18,2.18,0,0,0,.521-1.267c0-1.065-1.6-1.694-2.463-1.728h-.014l-.012,0c-2.525.446-4.873,3.631-5.756,5.255a6.33,6.33,0,0,0-.863,2.773c0,.529.276,2.038,1.5,2.038H242l.014,0c.285-.08,2.782-.79,2.782-1.709,0-.148-.124-.2-.306-.269l-.039-.006a16.775,16.775,0,0,0-2.187.841c-.557,0-.557-.089-.557-.476a4.867,4.867,0,0,1,1.2-2.543.593.593,0,0,1,.207-.109m4.656-4.583c.151,0,.186.036.2.082v.084c0,2.023-3.48,3.386-4.269,3.413a12.611,12.611,0,0,1,3.691-3.514,1.55,1.55,0,0,1,.379-.065" transform="translate(15.928 0)" fill="#c0d200"/>
      <path id="Trazado_48" data-name="Trazado 48" d="M252.228,80.739a3.65,3.65,0,0,1-1.044-.356c0-.209.553-.615.947-.834,3.417-1.9,4.563-1.944,4.572-1.944h.026a2.712,2.712,0,0,1,.553-.03c.183,0,.383-.082.383-.269,0-.3-.673-.87-1.74-.87a7.84,7.84,0,0,0-2.667,1.015,29.584,29.584,0,0,1-2.911,1.521,4.561,4.561,0,0,1-.472.235c-.582.264-1.317.594-1.317,1.378,0,.5,1.053.7,2.28.94,1.048.2,2.358.446,2.358.88,0,.347-.627.933-1.81,1.7a11.19,11.19,0,0,1-3.1,1.375c-.044.017-.27.1-.27.265,0,.263.722.439,1.2.439,1.91,0,6.1-2.418,6.139-3.555-.054-1.085-1.9-1.57-3.124-1.892" transform="translate(16.427 0)" fill="#c0d200"/>
      <path id="Trazado_49" data-name="Trazado 49" d="M264.316,74.44c.886-.094,1.642-.2,2.323-.3a21.648,21.648,0,0,1,3.19-.3,4.206,4.206,0,0,1,1.24.135.782.782,0,0,0,.223.044c.2,0,.307-.237.307-.4,0-.786-.393-1-.481-1.035a1.823,1.823,0,0,0-.751-.122,15.174,15.174,0,0,0-1.763.148,19.832,19.832,0,0,1-3.334.432c-.1,0-.115-.009-.115,0a.313.313,0,0,0,0-.039c.579-.9,1.858-2.522,1.867-2.535,2.112-2.374,2.112-2.764,2.112-2.893a.222.222,0,0,0-.227-.215c-2.016,0-2.63.914-3.486,2.174-.123.187-.257.387-.408.6a24.919,24.919,0,0,1-1.963,2.977.836.836,0,0,0-.07.089.488.488,0,0,1-.306.1c-1.49.147-2.554.214-3.352.214-1.75,0-2.067-.283-2.073-.283l-.035-.032a1.232,1.232,0,0,0-.518-.156.36.36,0,0,0-.381.363l0,.032c.018.06.5,1.483,1.732,1.558a33.758,33.758,0,0,0,3.625-.178c.021.009.053.018.069.027a2.291,2.291,0,0,0-.123.208c-.245.41-.766,1.172-1.363,2.054a50.557,50.557,0,0,0-3.745,6.047,11.078,11.078,0,0,0-.782,3.331c0,.013.007,1.27.5,1.27.7,0,1.3-2.126,1.308-2.15a9.067,9.067,0,0,0,.144-.925,2.665,2.665,0,0,1,.272-1.05c1.829-4.354,6.084-8.985,6.137-9.051a.3.3,0,0,1,.223-.13" transform="translate(16.938 0)" fill="#c0d200"/>
      <path id="Trazado_50" data-name="Trazado 50" d="M269.218,79.277a1.669,1.669,0,0,0-1.134.337c-.3.356-.906,1.006-.906,1.006-3.141,2.254-4.88,3.052-5.415,3.052-.064,0-.1,0-.112,0a.4.4,0,0,1-.005-.085c0-1.527,5.741-6.109,7.141-6.109a1.756,1.756,0,0,1,.824.221.907.907,0,0,0,.5.144l.03,0a.262.262,0,0,0,.192-.3c0-.792-1.6-1.428-2.24-1.428-2.305.034-8.3,6.157-8.3,7.908,0,.227.372,1.131,1.153,1.131a3.809,3.809,0,0,0,1.318-.337,18.093,18.093,0,0,0,4.069-2.35,2.845,2.845,0,0,0-.241,1.059c0,.562.179.943.526,1.092l.048.007a.306.306,0,0,0,.306-.32,12.22,12.22,0,0,1,2.215-3.547c.4-.424.882-.963.882-1.167s-.294-.3-.852-.3" transform="translate(17.207 0)" fill="#c0d200"/>
      <path id="Trazado_51" data-name="Trazado 51" d="M281.956,75.86a11.13,11.13,0,0,0-3.912.934,21.154,21.154,0,0,0-3.847,2.258,4.129,4.129,0,0,0,.525-1.474,1.2,1.2,0,0,0-.992-1.05.773.773,0,0,0-.24-.071.281.281,0,0,0-.3.271v.134c0,.352-.116,1.693-1.739,4.163,0,.009-.564.864-1.187,1.744a5.177,5.177,0,0,0-1.109,2.2c0,.2.1.932.61.932h.033l.023-.017a.582.582,0,0,0,.217-.274,40.41,40.41,0,0,1,2.719-3.463,29.966,29.966,0,0,1,8.991-5.747l.023-.012c.4-.24.4-.352.4-.39s-.014-.14-.216-.14" transform="translate(17.827 0)" fill="#c0d200"/>
      <path id="Trazado_52" data-name="Trazado 52" d="M118.5,55.3l-7.487-25.335h-6.283L97.285,55.322,88.83,27.864l-5.891,1.884,10.213,32.7h8.38l6.334-22.078,6.4,22.078h8.382l10.041-32.7L126.8,27.864Z" transform="translate(5.493 0)" fill="#202124"/>
      <rect id="Rect치ngulo_11" data-name="Rect치ngulo 11" width="6.033" height="26.997" transform="translate(141.323 35.303)" fill="#202124"/>
      <path id="Trazado_53" data-name="Trazado 53" d="M135.588,25.814a3.476,3.476,0,0,0-3.4,3.186,3.405,3.405,0,1,0,6.791,0,3.211,3.211,0,0,0-.913-2.077,3.377,3.377,0,0,0-2.476-1.109" transform="translate(8.755 0)" fill="#202124"/>
      <path id="Trazado_54" data-name="Trazado 54" d="M187.629,55l-.762.36a30.4,30.4,0,0,1-10.024,2.355c-2.319,0-3.155-1.223-3.155-2.355V51.12H189.4V41.942c0-4.581-3.672-6.994-10.6-6.994-10.606,0-11.144,6.035-11.144,7.244V55.4c0,4.639,2.952,7.4,7.893,7.4a34.319,34.319,0,0,0,13.713-2.987l.75-.362Zm-4.26-8.818h-9.681V43.163c0-.926.508-3.07,5.114-3.07,4.568,0,4.568,2.12,4.568,2.917Z" transform="translate(11.105 0)" fill="#202124"/>
      <path id="Trazado_55" data-name="Trazado 55" d="M215.847,59.006c-3.1,0-4.193-1.781-4.193-3.305V50.458h16.2V41.869c0-4.206-3.36-6.336-10-6.336-10.05,0-10.551,5.5-10.551,6.6v13.62c0,6.1,5.037,6.758,7.2,6.758a35.312,35.312,0,0,0,13.668-2.951l-1.625-3.052a32.109,32.109,0,0,1-10.7,2.5m-4.193-15.881c0-.942.448-4.032,6.2-4.032,3.739,0,5.639,1.3,5.639,3.88V47.1H211.653Z" transform="translate(13.731 0)" fill="#202124"/>
      <path id="Trazado_56" data-name="Trazado 56" d="M239.4,59.005c-3.1,0-4.188-1.781-4.188-3.305V42.341c0-1.522,1.09-3.305,4.188-3.305a22.782,22.782,0,0,1,9.2,2.079l1.622-3.046A18.415,18.415,0,0,0,247,36.815a30.771,30.771,0,0,0-8.947-1.284c-2.171,0-7.2.657-7.2,6.756V55.75c0,6.1,5.029,6.758,7.2,6.758A31.007,31.007,0,0,0,247,61.226a19.15,19.15,0,0,0,3.21-1.252l-1.622-3.045a22.8,22.8,0,0,1-9.2,2.076" transform="translate(15.291 0)" fill="#202124"/>
      <path id="Trazado_57" data-name="Trazado 57" d="M266.861,35.428c-4.291,0-8.863,3.674-8.9,3.709l-.089.073V25.525h-4.36v36.51h4.36V42.687l.015-.023c.043-.03,4.022-3.155,7.968-3.155,3.811,0,3.861,3.112,3.861,3.152V62.035h4.351V42.183c0-6.468-7.133-6.755-7.2-6.755" transform="translate(16.791 0)" fill="#202124"/>
      <path id="Trazado_58" data-name="Trazado 58" d="M158.911,25.247V37.632a16.9,16.9,0,0,0-8.351-2.789c-.083,0-7.892.091-7.892,7.908V55.51c0,5.455,3.9,7.393,7.565,7.393a19.641,19.641,0,0,0,8.678-2.252V62.3h6.044V25.247Zm0,29.761a13.219,13.219,0,0,1-7.271,2.75c-1.95,0-2.942-.809-2.942-2.4V42.907c0-1.6,1.115-2.409,3.325-2.409.888,0,3.3.279,6.888,2.758Z" transform="translate(9.45 0)" fill="#202124"/>
      <path id="Trazado_59" data-name="Trazado 59" d="M202.5,32.638V62.071h-4.878V32.638h-9.984V28.693h24.627v3.945Z" transform="translate(12.428 0)" fill="#202124"/>
      <path id="Trazado_60" data-name="Trazado 60" d="M34.981,75.371s.136,6.017-2.732,6.159c0,0-4.873-6.144-2.092-25.388.012-.119.1-.262.2-.256.075,0,.17.035.208.289.092.556-.13,16.8,4.413,19.2" transform="translate(1.941 0)" fill="#202124"/>
      <path id="Trazado_61" data-name="Trazado 61" d="M41.891,7.79s-.132-6.018,2.732-6.158c0,0,4.874,6.143,2.092,25.387-.012.119-.1.262-.2.256-.075,0-.167-.037-.206-.289-.095-.555.127-16.794-4.413-19.2" transform="translate(2.775 0)" fill="#202124"/>
      <path id="Trazado_62" data-name="Trazado 62" d="M7.618,55.33s-5.489,3.118-7.053.86c0,0,3.236-7.026,22.4-14.394.113-.05.293-.052.341.04.03.06.05.155-.162.309C22.669,42.5,7.564,50.439,7.618,55.33" transform="translate(0.037 0)" fill="#202124"/>
      <path id="Trazado_63" data-name="Trazado 63" d="M70.313,27.828s5.491-3.114,7.053-.857c0,0-3.235,7.027-22.4,14.391-.112.048-.291.055-.336-.036-.037-.058-.055-.157.159-.31.472-.359,15.577-8.292,15.519-13.188" transform="translate(3.617 0)" fill="#202124"/>
      <path id="Trazado_64" data-name="Trazado 64" d="M11.09,21.539s-5.617-2.9-4.318-5.3c0,0,8.107-.886,24.488,10.994.1.07.189.213.136.3-.037.057-.118.118-.369.021-.566-.2-15.444-8.5-19.938-6.012" transform="translate(0.436 0)" fill="#202124"/>
      <path id="Trazado_65" data-name="Trazado 65" d="M66.975,61.622s5.618,2.9,4.312,5.3c0,0-8.11.881-24.484-11-.1-.066-.194-.21-.135-.3.039-.053.117-.115.372-.019.56.2,15.442,8.5,19.935,6.014" transform="translate(3.09 0)" fill="#202124"/>
      <path id="Trazado_66" data-name="Trazado 66" d="M37.457,9.415a77.958,77.958,0,0,0-4.867,20.07,33.036,33.036,0,0,1-9.628-.942C14.8,26.762,3,19.145,5.88,16.386c0,0-5.785,1.163,3.543,11.82a85.766,85.766,0,0,0,16.1,13.99,29.127,29.127,0,0,1-5.684,7.345c-5.72,5.737-18.658,11.518-19.766,7.8,0,0-1.81,5.279,12.691,3.03A91.906,91.906,0,0,0,33.727,54.29a28.265,28.265,0,0,1,3.942,8.292C40.1,70.1,38.971,83.5,34.984,82.538c0,0,3.973,4.114,9.146-8.791A78.1,78.1,0,0,0,49,53.675a32.922,32.922,0,0,1,9.625.945c8.157,1.774,19.963,9.4,17.086,12.155,0,0,5.781-1.166-3.547-11.82a85.435,85.435,0,0,0-16.1-13.993,29.308,29.308,0,0,1,5.686-7.346c5.719-5.735,18.655-11.513,19.763-7.8,0,0,1.818-5.28-12.685-3.031A91.8,91.8,0,0,0,47.86,28.871a28.276,28.276,0,0,1-3.944-8.291C41.485,13.068,42.613-.336,46.6.624A2.4,2.4,0,0,0,44.961,0c-1.63,0-4.341,1.534-7.5,9.415" transform="translate(0 0)" fill="#c4d600"/>
    </g>
  </g>
</svg>
