<svg id="icon-encendido" xmlns="http://www.w3.org/2000/svg" width="10" height="10" viewBox="0 0 10 10">
  <path id="Trazado_2518" data-name="Trazado 2518" d="M-338-153.676A4.683,4.683,0,0,1-333.322-149,4.683,4.683,0,0,1-338-144.322,4.683,4.683,0,0,1-342.676-149,4.683,4.683,0,0,1-338-153.676m0-.323a5,5,0,0,0-5,5,5,5,0,0,0,5,5,5,5,0,0,0,5-5,5,5,0,0,0-5-5Z" transform="translate(342.999 153.999)" fill="#f5f5f5"/>
  <ellipse id="Elipse_520" data-name="Elipse 520" cx="4.6" cy="4.6" rx="4.6" ry="4.6" transform="translate(0.4 0.4)" fill="#33c857"/>
  <path id="Trazado_2519" data-name="Trazado 2519" d="M-336.413-151.367a3.959,3.959,0,0,1,3.955,3.955,3.959,3.959,0,0,1-3.955,3.955,3.959,3.959,0,0,1-3.955-3.955,3.959,3.959,0,0,1,3.955-3.955m0-.633A4.587,4.587,0,0,0-341-147.413a4.587,4.587,0,0,0,4.587,4.587,4.587,4.587,0,0,0,4.587-4.587A4.587,4.587,0,0,0-336.413-152Z" transform="translate(341.4 152.4)" fill="#008142"/>
  <g id="Grupo_4767" data-name="Grupo 4767" transform="translate(1.931 2.077)">
    <path id="Trazado_2242" data-name="Trazado 2242" d="M-326.272-58.117v-2.341a.469.469,0,0,1,.468-.468.469.469,0,0,1,.468.468v2.341a.469.469,0,0,1-.468.468A.469.469,0,0,1-326.272-58.117Zm2.324-2.123a.351.351,0,0,0-.493.058.351.351,0,0,0,.058.493,2.287,2.287,0,0,1,.876,1.806,2.3,2.3,0,0,1-2.3,2.3,2.3,2.3,0,0,1-2.3-2.3,2.286,2.286,0,0,1,.876-1.8.351.351,0,0,0,.058-.493.352.352,0,0,0-.493-.058,2.986,2.986,0,0,0-1.143,2.357,3,3,0,0,0,3,3,3,3,0,0,0,3-3A2.986,2.986,0,0,0-323.948-60.24Z" transform="translate(328.804 60.927)" fill="#fff"/>
  </g>
</svg>
