<svg id="icon-online" xmlns="http://www.w3.org/2000/svg" width="10" height="10" viewBox="0 0 10 10">
  <path id="Trazado_2236" data-name="Trazado 2236" d="M-338-153.676A4.683,4.683,0,0,1-333.322-149,4.683,4.683,0,0,1-338-144.322,4.683,4.683,0,0,1-342.676-149,4.683,4.683,0,0,1-338-153.676m0-.323a5,5,0,0,0-5,5,5,5,0,0,0,5,5,5,5,0,0,0,5-5,5,5,0,0,0-5-5Z" transform="translate(342.999 153.999)" fill="#f5f5f5"/>
  <ellipse id="Elipse_508" data-name="Elipse 508" cx="4.6" cy="4.6" rx="4.6" ry="4.6" transform="translate(0.4 0.4)" fill="#33c858"/>
  <path id="Trazado_2246" data-name="Trazado 2246" d="M-336.413-151.367a3.959,3.959,0,0,1,3.955,3.955,3.959,3.959,0,0,1-3.955,3.955,3.959,3.959,0,0,1-3.955-3.955,3.959,3.959,0,0,1,3.955-3.955m0-.633A4.587,4.587,0,0,0-341-147.413a4.587,4.587,0,0,0,4.587,4.587,4.587,4.587,0,0,0,4.587-4.587A4.587,4.587,0,0,0-336.413-152Z" transform="translate(341.413 152.413)" fill="#008141"/>
  <path id="Trazado_2241" data-name="Trazado 2241" d="M-326.578-131.535a.305.305,0,0,1-.217.09.305.305,0,0,1-.216-.09l-1.73-1.73a.46.46,0,0,1,0-.65l.217-.217a.459.459,0,0,1,.65,0l1.08,1.08,2.918-2.918a.46.46,0,0,1,.65,0l.217.217a.459.459,0,0,1,0,.65Z" transform="translate(330.792 138.798)" fill="#fff"/>
</svg>
