<svg id="icons-nogps" xmlns="http://www.w3.org/2000/svg" width="10" height="10" viewBox="0 0 10 10">
  <path id="Trazado_2522" data-name="Trazado 2522" d="M-338-153.676A4.683,4.683,0,0,1-333.322-149,4.683,4.683,0,0,1-338-144.322,4.683,4.683,0,0,1-342.676-149,4.683,4.683,0,0,1-338-153.676m0-.323a5,5,0,0,0-5,5,5,5,0,0,0,5,5,5,5,0,0,0,5-5,5,5,0,0,0-5-5Z" transform="translate(342.999 153.999)" fill="#f5f5f5"/>
  <circle id="Elipse_522" data-name="Elipse 522" cx="4.6" cy="4.6" r="4.6" transform="translate(0.4 0.4)" fill="#fc5652"/>
  <path id="Trazado_2523" data-name="Trazado 2523" d="M-336.413-151.367a3.959,3.959,0,0,1,3.955,3.955,3.959,3.959,0,0,1-3.955,3.955,3.959,3.959,0,0,1-3.955-3.955,3.959,3.959,0,0,1,3.955-3.955m0-.633A4.587,4.587,0,0,0-341-147.413a4.587,4.587,0,0,0,4.587,4.587,4.587,4.587,0,0,0,4.587-4.587A4.587,4.587,0,0,0-336.413-152Z" transform="translate(341.4 152.4)" fill="#d13333"/>
  <rect id="Rectángulo_2670" data-name="Rectángulo 2670" width="4.8" height="4.8" rx="1" transform="translate(2.6 2.6)" fill="#fff"/>
</svg>
