<svg id="icon-batery" xmlns="http://www.w3.org/2000/svg" width="10" height="10" viewBox="0 0 10 10">
  <rect id="Rectángulo_147874" data-name="Rectángulo 147874" width="10" height="10" rx="0.8" fill="none"/>
  <g id="Grupo_11100" data-name="Grupo 11100" transform="translate(-4.778 -3)">
    <path id="Rectángulo_147872" data-name="Rectángulo 147872" d="M.6-.5H3.9A1.118,1.118,0,0,1,5,.633V6.864A1.118,1.118,0,0,1,3.9,8H.6A1.118,1.118,0,0,1-.5,6.864V.633A1.118,1.118,0,0,1,.6-.5ZM3.9,7.43a.559.559,0,0,0,.55-.566V.633A.559.559,0,0,0,3.9.066H.6A.559.559,0,0,0,.05.633V6.864A.559.559,0,0,0,.6,7.43Z" transform="translate(7.528 5.003)" fill="#fff"/>
    <rect id="Rectángulo_147873" data-name="Rectángulo 147873" width="3.5" height="1.75" rx="0.5" transform="translate(8.028 10.222)" fill="#fcbf41"/>
    <rect id="Rectángulo_147875" data-name="Rectángulo 147875" width="3.5" height="1.75" rx="0.5" transform="translate(8.028 8.222)" fill="#fcbf41"/>
    <path id="Trazado_2510" data-name="Trazado 2510" d="M9.163,3.163C9,3.325,9,3.587,9,4.111h3.333c0-.524,0-.786-.163-.948S11.746,3,11.222,3H10.111C9.587,3,9.325,3,9.163,3.163Z" transform="translate(-0.889)" fill="#fff" fill-rule="evenodd"/>
  </g>
</svg>
