<svg id="icons-nolocaliza" xmlns="http://www.w3.org/2000/svg" width="10" height="10" viewBox="0 0 10 10">
  <path id="Trazado_2520" data-name="Trazado 2520" d="M-338-153.676A4.683,4.683,0,0,1-333.322-149,4.683,4.683,0,0,1-338-144.322,4.683,4.683,0,0,1-342.676-149,4.683,4.683,0,0,1-338-153.676m0-.323a5,5,0,0,0-5,5,5,5,0,0,0,5,5,5,5,0,0,0,5-5,5,5,0,0,0-5-5Z" transform="translate(342.999 153.999)" fill="#f5f5f5"/>
  <circle id="Elipse_521" data-name="Elipse 521" cx="4.6" cy="4.6" r="4.6" transform="translate(0.4 0.4)" fill="#d95832"/>
  <path id="Trazado_2521" data-name="Trazado 2521" d="M-336.413-151.367a3.959,3.959,0,0,1,3.955,3.955,3.959,3.959,0,0,1-3.955,3.955,3.959,3.959,0,0,1-3.955-3.955,3.959,3.959,0,0,1,3.955-3.955m0-.633A4.587,4.587,0,0,0-341-147.413a4.587,4.587,0,0,0,4.587,4.587,4.587,4.587,0,0,0,4.587-4.587A4.587,4.587,0,0,0-336.413-152Z" transform="translate(341.4 152.4)" fill="#af3417"/>
  <path id="Trazado_2273" data-name="Trazado 2273" d="M-342.457,251.122a.594.594,0,0,0-.84,0l-1.371,1.371-1.371-1.371a.594.594,0,0,0-.84,0,.594.594,0,0,0,0,.84l1.371,1.371-1.371,1.371a.594.594,0,0,0,0,.84.591.591,0,0,0,.42.174.592.592,0,0,0,.42-.174l1.371-1.371,1.371,1.371a.592.592,0,0,0,.42.174.591.591,0,0,0,.42-.174.594.594,0,0,0,0-.84l-1.371-1.371,1.371-1.371A.594.594,0,0,0-342.457,251.122Z" transform="translate(349.785 -248.444)" fill="#fff"/>
</svg>
