<svg id="icons-bateriabaja" xmlns="http://www.w3.org/2000/svg" width="10" height="10" viewBox="0 0 10 10">
  <path id="Trazado_2524" data-name="Trazado 2524" d="M-338-153.676A4.683,4.683,0,0,1-333.322-149,4.683,4.683,0,0,1-338-144.322,4.683,4.683,0,0,1-342.676-149,4.683,4.683,0,0,1-338-153.676m0-.323a5,5,0,0,0-5,5,5,5,0,0,0,5,5,5,5,0,0,0,5-5,5,5,0,0,0-5-5Z" transform="translate(342.999 153.999)" fill="#f5f5f5"/>
  <circle id="Elipse_523" data-name="Elipse 523" cx="4.6" cy="4.6" r="4.6" transform="translate(0.4 0.4)" fill="#fcbc59"/>
  <path id="Trazado_2525" data-name="Trazado 2525" d="M-336.413-151.367a3.959,3.959,0,0,1,3.955,3.955,3.959,3.959,0,0,1-3.955,3.955,3.959,3.959,0,0,1-3.955-3.955,3.959,3.959,0,0,1,3.955-3.955m0-.633A4.587,4.587,0,0,0-341-147.413a4.587,4.587,0,0,0,4.587,4.587,4.587,4.587,0,0,0,4.587-4.587A4.587,4.587,0,0,0-336.413-152Z" transform="translate(341.4 152.4)" fill="#dd8c25"/>
  <path id="Trazado_2240" data-name="Trazado 2240" d="M-318.5,192.564h-2.048l1.366-1.541c.362-.385-.482-.743-.843-.358l-1.888,2.036c-.2.248.04.55.442.55h2.048l-1.406,1.513c-.361.385.522.77.884.358l1.888-2.036C-317.861,192.867-318.1,192.564-318.5,192.564Z" transform="translate(324.977 -187.913)" fill="#fff" fill-rule="evenodd"/>
</svg>
