<svg id="icons-apagado" xmlns="http://www.w3.org/2000/svg" width="10" height="10" viewBox="0 0 10 10">
  <path id="Trazado_2516" data-name="Trazado 2516" d="M-338-153.676A4.683,4.683,0,0,1-333.322-149,4.683,4.683,0,0,1-338-144.322,4.683,4.683,0,0,1-342.676-149,4.683,4.683,0,0,1-338-153.676m0-.323a5,5,0,0,0-5,5,5,5,0,0,0,5,5,5,5,0,0,0,5-5,5,5,0,0,0-5-5Z" transform="translate(342.999 153.999)" fill="#f5f5f5"/>
  <circle id="Elipse_519" data-name="Elipse 519" cx="4.6" cy="4.6" r="4.6" transform="translate(0.4 0.4)" fill="#fc5652"/>
  <path id="Trazado_2517" data-name="Trazado 2517" d="M-336.413-151.367a3.959,3.959,0,0,1,3.955,3.955,3.959,3.959,0,0,1-3.955,3.955,3.959,3.959,0,0,1-3.955-3.955,3.959,3.959,0,0,1,3.955-3.955m0-.633A4.587,4.587,0,0,0-341-147.413a4.587,4.587,0,0,0,4.587,4.587,4.587,4.587,0,0,0,4.587-4.587A4.587,4.587,0,0,0-336.413-152Z" transform="translate(341.4 152.4)" fill="#d13333"/>
  <g id="Grupo_11172" data-name="Grupo 11172" transform="translate(2 2.4)">
    <path id="Trazado_2248" data-name="Trazado 2248" d="M-323.536,279.313l-2.812-4.533a.18.18,0,0,0-.153-.085.18.18,0,0,0-.153.085l-2.82,4.545a.179.179,0,0,0,0,.182.18.18,0,0,0,.157.092h5.641a.18.18,0,0,0,.18-.179A.18.18,0,0,0-323.536,279.313Z" transform="translate(329.5 -274.696)" fill="#eec750"/>
    <path id="Trazado_2249" data-name="Trazado 2249" d="M-313.564,285.111l-.069-1.027q-.019-.3-.019-.431a.391.391,0,0,1,.093-.278.32.32,0,0,1,.246-.1.247.247,0,0,1,.247.128.864.864,0,0,1,.062.368,2.837,2.837,0,0,1-.015.287l-.092,1.057a.832.832,0,0,1-.064.29.169.169,0,0,1-.163.1.162.162,0,0,1-.161-.1A.967.967,0,0,1-313.564,285.111Zm.238,1.411a.337.337,0,0,1-.229-.085.3.3,0,0,1-.1-.237.308.308,0,0,1,.093-.226.311.311,0,0,1,.229-.093.317.317,0,0,1,.231.093.305.305,0,0,1,.1.226.3.3,0,0,1-.1.236A.328.328,0,0,1-313.326,286.522Z" transform="translate(316.32 -282.414)"/>
  </g>
</svg>
