<svg id="logo-color" xmlns="http://www.w3.org/2000/svg" xmlns:xlink="http://www.w3.org/1999/xlink" width="130" height="97.575" viewBox="0 0 130 97.575">
  <defs>
    <clipPath id="clip-path">
      <rect id="Rectángulo_53" data-name="Rectángulo 53" width="130" height="97.575" fill="none"/>
    </clipPath>
  </defs>
  <g id="Grupo_74" data-name="Grupo 74" clip-path="url(#clip-path)">
    <path id="Trazado_154" data-name="Trazado 154" d="M11.421,78.4c-2.9-.562-5.872-1.388-5.872-3.27,0-2.043,2.262-3.114,4.5-3.114a5.477,5.477,0,0,1,4.89,2.764l.119.2,3.691-2.442-.1-.177c-1.541-2.886-4.505-4.476-8.349-4.476-4.568,0-9.194,2.507-9.194,7.3,0,5.249,4.193,6.19,8.633,7.189,2.711.6,4.955,1.276,4.955,3.58,0,2.4-2.542,3.472-5.061,3.472-2.424,0-4.158-.912-5.982-3.149l-.137-.166L0,88.826.12,89c2.225,3.193,5.07,4.556,9.514,4.556,4.742,0,9.809-2.038,9.812-7.758,0-5.154-4.056-6.63-8.025-7.4" transform="translate(0 -1.646)" fill="#414a55"/>
    <path id="Trazado_155" data-name="Trazado 155" d="M37.931,67.882a11.282,11.282,0,0,0-8.5,3.859V68.5H24.993V99.22h4.441V89.083a10.841,10.841,0,0,0,9.113,4.469c6.852,0,12.218-5.639,12.218-12.836,0-7.555-5.278-12.834-12.834-12.834m8.082,12.831c0,5.125-3.41,8.7-8.293,8.7s-8.291-3.579-8.291-8.7,3.409-8.7,8.291-8.7v0c4.888,0,8.293,3.573,8.293,8.7" transform="translate(-0.606 -1.646)" fill="#414a55"/>
    <path id="Trazado_156" data-name="Trazado 156" d="M77.005,88.563V78.256c0-7.077-3.262-10.373-10.27-10.373a13.543,13.543,0,0,0-9.7,3.758l-.149.152,2.81,2.924.158-.145a10.373,10.373,0,0,1,6.974-2.554c3.693,0,5.73,1.8,5.73,5.06v.5H71.244c-4.593,0-15.349,0-15.348,8.628,0,4.395,3.674,7.347,9.143,7.347a9.3,9.3,0,0,0,7.786-3.865,14.837,14.837,0,0,0,.261,3.08l.04.169h4.279l-.043-.257a26.231,26.231,0,0,1-.357-4.118M72.563,81.4v1.309c-.087,3.237-1.933,7.017-6.858,7.017-2.313,0-5.061-.678-5.061-3.929,0-3.634,4.426-4.4,8.139-4.4Z" transform="translate(-1.356 -1.646)" fill="#414a55"/>
    <path id="Trazado_157" data-name="Trazado 157" d="M95.8,72.015a7.17,7.17,0,0,1,5.88,2.843l.145.177,3.519-3.12-.152-.165A12.376,12.376,0,0,0,95.8,67.884c-7.438,0-12.63,5.276-12.63,12.833S88.366,93.553,95.8,93.553a11.786,11.786,0,0,0,9.242-3.923l.138-.159-3.311-3.137-.147.2A6.742,6.742,0,0,1,95.8,89.421c-4.566,0-7.882-3.66-7.882-8.7,0-5.287,3.093-8.7,7.882-8.7" transform="translate(-2.017 -1.646)" fill="#414a55"/>
    <path id="Trazado_158" data-name="Trazado 158" d="M132.631,80.667c0-7.885-4.445-12.783-11.6-12.783-7.258,0-12.527,5.4-12.527,12.833,0,7.558,5.09,12.836,12.376,12.836,4.787,0,8.133-1.561,10.837-5.06l.134-.173-3.37-2.629-.135.172a8.735,8.735,0,0,1-7.465,3.558,7.779,7.779,0,0,1-7.606-7.253h19.36Zm-4.755-2.322H113.284c.6-3.911,3.5-6.329,7.593-6.329s6.755,2.418,7,6.329" transform="translate(-2.631 -1.646)" fill="#414a55"/>
    <path id="Trazado_159" data-name="Trazado 159" d="M99.48,15.366c-1.183,2.417-2.449,4.8-3.835,7.074A53.382,53.382,0,0,1,85.412,34.459a58.133,58.133,0,0,1-6.243,4.748c-1.084.726-2.2,1.4-3.328,2.048-.571.313-1.131.641-1.71.937l-.863.452-.873.43a63.422,63.422,0,0,1-14.6,5.026,3.534,3.534,0,0,0,.737,6.989,3.6,3.6,0,0,0,.744-.079,3.68,3.68,0,0,0,.367-.1l.012,0a69.554,69.554,0,0,0,15.332-7.218l.891-.567.876-.588c.587-.385,1.153-.8,1.728-1.207,1.132-.833,2.25-1.681,3.323-2.582a62.357,62.357,0,0,0,6.08-5.766,56.069,56.069,0,0,0,9.314-13.7c1.169-2.491,2.173-5.014,3.1-7.574.458-1.28.888-2.569,1.277-3.871a37.589,37.589,0,0,0,.979-3.947,37.137,37.137,0,0,1-1.394,3.8c-.523,1.242-1.087,2.467-1.674,3.678" transform="translate(-1.334 -0.191)" fill="#414a55"/>
    <path id="Trazado_160" data-name="Trazado 160" d="M83.577,44.823l-.109.091a68.764,68.764,0,0,1,9.271,2.316H92.8L89.08,39.691a63.5,63.5,0,0,1-5.5,5.132" transform="translate(-2.024 -0.963)" fill="#c5da00"/>
    <path id="Trazado_161" data-name="Trazado 161" d="M78.308,13.549a61.182,61.182,0,0,1,11.8-.285,3.374,3.374,0,1,0,.483-6.732,3.243,3.243,0,0,0-.364-.006h-.011A66.926,66.926,0,0,0,75.872,8.611Z" transform="translate(-1.84 -0.158)" fill="#414a55"/>
    <path id="Trazado_162" data-name="Trazado 162" d="M47.619,26.92A50.214,50.214,0,0,1,56.8,20.369l2.633-5.2q-.411.239-.819.484A53.538,53.538,0,0,0,46.421,25.735c-1.735,1.973-3.328,4.02-4.858,6.121-.76,1.052-1.5,2.119-2.2,3.209a35.621,35.621,0,0,0-1.951,3.36A35.669,35.669,0,0,1,39.7,35.312c.811-1,1.654-1.972,2.515-2.926,1.728-1.9,3.526-3.752,5.4-5.466" transform="translate(-0.907 -0.368)" fill="#414a55"/>
    <path id="Trazado_163" data-name="Trazado 163" d="M71.414,41.359l.855-.422.844-.442.009,0,.01,0c.355-.181.707-.379,1.081-.587.187-.105.376-.211.566-.314.969-.563,2.108-1.238,3.216-1.98l.007,0,.008,0a56.755,56.755,0,0,0,6.056-4.607c.3-.259.586-.522.875-.786L69.052,0,45.575,46.346c5.85-2.218,14.13-3.513,22.7-3.565q1.592-.667,3.134-1.422" transform="translate(-1.105)" fill="#c5da00"/>
  </g>
</svg>
