<svg id="Logotipo" xmlns="http://www.w3.org/2000/svg" width="35.361" height="30" viewBox="0 0 35.361 30">
  <g id="Grupo_11011" data-name="Grupo 11011">
    <path id="Trazado_195" data-name="Trazado 195" d="M125.615,49.554c-.646,1.32-1.339,2.625-2.095,3.866a29.219,29.219,0,0,1-5.592,6.567,31.778,31.778,0,0,1-3.411,2.594c-.592.4-1.2.763-1.818,1.119-.312.17-.618.35-.935.512l-.471.247-.477.235a34.675,34.675,0,0,1-7.979,2.747,1.931,1.931,0,0,0,.4,3.819,1.909,1.909,0,0,0,.406-.044,2.072,2.072,0,0,0,.2-.055l.006,0a38.039,38.039,0,0,0,8.378-3.944l.486-.31.479-.321c.321-.21.63-.44.944-.659.618-.455,1.229-.918,1.816-1.411a33.943,33.943,0,0,0,3.322-3.15,30.611,30.611,0,0,0,5.09-7.485c.639-1.361,1.188-2.74,1.692-4.138.25-.7.485-1.4.7-2.115a20.491,20.491,0,0,0,.535-2.157,20.152,20.152,0,0,1-.762,2.076c-.286.679-.594,1.348-.915,2.01Z" transform="translate(-91.932 -41.261)" fill="#fff"/>
    <path id="Trazado_196" data-name="Trazado 196" d="M265.329,231.415l-.059.049a37.545,37.545,0,0,1,5.066,1.266h.033l-2.033-4.121A34.519,34.519,0,0,1,265.329,231.415Z" transform="translate(-240.712 -207.446)" fill="#c5da02"/>
    <path id="Trazado_197" data-name="Trazado 197" d="M222.842,41.438a33.373,33.373,0,0,1,6.446-.156,1.844,1.844,0,0,0,.648-3.61,1.815,1.815,0,0,0-.384-.069c-.067,0-.133-.006-.2,0h-.006a36.5,36.5,0,0,0-7.837,1.14l1.331,2.7Z" transform="translate(-201.004 -34.119)" fill="#fff"/>
    <path id="Trazado_198" data-name="Trazado 198" d="M5.579,93.82A27.415,27.415,0,0,1,10.6,90.24l1.439-2.84q-.225.131-.447.265a29.265,29.265,0,0,0-6.663,5.508c-.948,1.078-1.819,2.2-2.655,3.345-.416.575-.819,1.158-1.2,1.753A19.629,19.629,0,0,0,0,100.107a19.454,19.454,0,0,1,1.252-1.7c.443-.546.9-1.078,1.375-1.6.944-1.039,1.926-2.05,2.951-2.986Z" transform="translate(0 -79.309)" fill="#fff"/>
    <path id="Trazado_199" data-name="Trazado 199" d="M61.14,22.6l.467-.231.461-.242,0,0,.006,0c.194-.1.387-.206.591-.321l.309-.172c.53-.307,1.152-.676,1.758-1.082l0,0,0,0a31.027,31.027,0,0,0,3.31-2.517q.242-.212.478-.43L59.848,0,47.02,25.325a37.6,37.6,0,0,1,12.406-1.948q.871-.365,1.713-.777Z" transform="translate(-42.667)" fill="#c5da02"/>
  </g>
</svg>
