<svg id="Logotipo" xmlns="http://www.w3.org/2000/svg" xmlns:xlink="http://www.w3.org/1999/xlink" width="109.218" height="30" viewBox="0 0 109.218 30">
  <defs>
    <clipPath id="clip-path">
      <rect id="Rectángulo_2871" data-name="Rectángulo 2871" width="109.218" height="30" fill="none"/>
    </clipPath>
  </defs>
  <g id="Grupo_101" data-name="Grupo 101" clip-path="url(#clip-path)">
    <path id="Trazado_190" data-name="Trazado 190" d="M418.661,98.005c-1.587-.307-3.209-.759-3.209-1.787,0-1.116,1.236-1.7,2.458-1.7a2.992,2.992,0,0,1,2.673,1.511l.065.107,2.017-1.334-.054-.1a4.864,4.864,0,0,0-4.562-2.446c-2.5,0-5.024,1.37-5.024,3.987,0,2.868,2.291,3.383,4.718,3.929,1.481.325,2.708.7,2.708,1.956s-1.39,1.9-2.766,1.9a3.845,3.845,0,0,1-3.269-1.721l-.075-.091-1.921,1.487.066.094a5.666,5.666,0,0,0,5.2,2.489c2.591,0,5.36-1.114,5.362-4.239,0-2.816-2.216-3.622-4.384-4.041Z" transform="translate(-374.24 -83.719)" fill="#fff"/>
    <path id="Trazado_191" data-name="Trazado 191" d="M563.44,92.25a6.168,6.168,0,0,0-4.644,2.108V92.587H556.37v16.787H558.8v-5.54a5.925,5.925,0,0,0,4.98,2.442,6.778,6.778,0,0,0,6.677-7.014,6.71,6.71,0,0,0-7.013-7.013Zm4.417,7.011a4.536,4.536,0,1,1-4.532-4.755v0a4.442,4.442,0,0,1,4.532,4.753Z" transform="translate(-504.864 -83.71)" fill="#fff"/>
    <path id="Trazado_192" data-name="Trazado 192" d="M745.885,103.52V97.887c0-3.867-1.783-5.668-5.612-5.668a7.4,7.4,0,0,0-5.3,2.053l-.082.083,1.536,1.6.086-.08a5.668,5.668,0,0,1,3.811-1.4c2.018,0,3.13.982,3.13,2.765v.273h-.72c-2.51,0-8.387,0-8.386,4.714,0,2.4,2.008,4.015,5,4.015a5.077,5.077,0,0,0,4.255-2.113,8.14,8.14,0,0,0,.143,1.683l.022.093H746.1l-.024-.14a14.31,14.31,0,0,1-.194-2.251Zm-2.428-3.914v.716a3.636,3.636,0,0,1-3.747,3.834c-1.263,0-2.766-.37-2.766-2.147,0-1.986,2.419-2.4,4.447-2.4h2.066Z" transform="translate(-666.367 -83.68)" fill="#fff"/>
    <path id="Trazado_193" data-name="Trazado 193" d="M898.361,94.491a3.919,3.919,0,0,1,3.213,1.554l.08.1,1.923-1.7-.083-.09a6.759,6.759,0,0,0-5.132-2.113,7.014,7.014,0,0,0,0,14.026,6.44,6.44,0,0,0,5.05-2.143l.075-.087-1.809-1.715-.081.11A3.684,3.684,0,0,1,898.361,104c-2.495,0-4.307-2-4.307-4.756s1.69-4.755,4.307-4.755Z" transform="translate(-808.933 -83.693)" fill="#fff"/>
    <path id="Trazado_194" data-name="Trazado 194" d="M1050.505,99.236c0-4.308-2.429-6.986-6.34-6.986a6.735,6.735,0,0,0-6.845,7.013c0,4.063,2.782,7.014,6.764,7.014a6.84,6.84,0,0,0,5.921-2.765l.073-.094-1.841-1.437-.073.093a4.771,4.771,0,0,1-4.079,1.943,4.25,4.25,0,0,1-4.156-3.963h10.579v-.82Zm-2.6-1.269h-7.974a3.932,3.932,0,0,1,4.149-3.459,3.519,3.519,0,0,1,3.824,3.459" transform="translate(-941.289 -83.71)" fill="#fff"/>
    <path id="Trazado_195" data-name="Trazado 195" d="M125.615,49.554c-.646,1.32-1.339,2.625-2.095,3.866a29.219,29.219,0,0,1-5.592,6.567,31.778,31.778,0,0,1-3.411,2.594c-.592.4-1.2.763-1.818,1.119-.312.17-.618.35-.935.512l-.471.247-.477.235a34.675,34.675,0,0,1-7.979,2.747,1.931,1.931,0,0,0,.4,3.819,1.909,1.909,0,0,0,.406-.044,2.072,2.072,0,0,0,.2-.055l.006,0a38.039,38.039,0,0,0,8.378-3.944l.486-.31.479-.321c.321-.21.63-.44.944-.659.618-.455,1.229-.918,1.816-1.411a33.943,33.943,0,0,0,3.322-3.15,30.611,30.611,0,0,0,5.09-7.485c.639-1.361,1.188-2.74,1.692-4.138.25-.7.485-1.4.7-2.115a20.491,20.491,0,0,0,.535-2.157,20.152,20.152,0,0,1-.762,2.076c-.286.679-.594,1.348-.915,2.01Z" transform="translate(-91.932 -41.261)" fill="#fff"/>
    <path id="Trazado_196" data-name="Trazado 196" d="M265.329,231.415l-.059.049a37.545,37.545,0,0,1,5.066,1.266h.033l-2.033-4.121A34.519,34.519,0,0,1,265.329,231.415Z" transform="translate(-240.712 -207.446)" fill="#c5da02"/>
    <path id="Trazado_197" data-name="Trazado 197" d="M222.842,41.438a33.373,33.373,0,0,1,6.446-.156,1.844,1.844,0,0,0,.648-3.61,1.815,1.815,0,0,0-.384-.069c-.067,0-.133-.006-.2,0h-.006a36.5,36.5,0,0,0-7.837,1.14l1.331,2.7Z" transform="translate(-201.004 -34.119)" fill="#fff"/>
    <path id="Trazado_198" data-name="Trazado 198" d="M5.579,93.82A27.415,27.415,0,0,1,10.6,90.24l1.439-2.84q-.225.131-.447.265a29.265,29.265,0,0,0-6.663,5.508c-.948,1.078-1.819,2.2-2.655,3.345-.416.575-.819,1.158-1.2,1.753A19.629,19.629,0,0,0,0,100.107a19.454,19.454,0,0,1,1.252-1.7c.443-.546.9-1.078,1.375-1.6.944-1.039,1.926-2.05,2.951-2.986Z" transform="translate(0 -79.309)" fill="#fff"/>
    <path id="Trazado_199" data-name="Trazado 199" d="M61.14,22.6l.467-.231.461-.242,0,0,.006,0c.194-.1.387-.206.591-.321l.309-.172c.53-.307,1.152-.676,1.758-1.082l0,0,0,0a31.027,31.027,0,0,0,3.31-2.517q.242-.212.478-.43L59.848,0,47.02,25.325a37.6,37.6,0,0,1,12.406-1.948q.871-.365,1.713-.777Z" transform="translate(-42.667)" fill="#c5da02"/>
  </g>
</svg>
