<?xml version="1.0" encoding="UTF-8"?><svg id="Capa_2" xmlns="http://www.w3.org/2000/svg" viewBox="0 0 66.32 56.26"><defs><style>.cls-1{fill:#414a55;}.cls-1,.cls-2{stroke-width:0px;}.cls-2{fill:#c5da00;}</style></defs><g id="Capa_1-2"><path class="cls-1" d="M63.17,15.55c-1.21,2.48-2.51,4.92-3.93,7.25-2.87,4.64-6.45,8.77-10.49,12.32-2.03,1.76-4.16,3.4-6.4,4.87-1.11.74-2.26,1.43-3.41,2.1-.59.32-1.16.66-1.75.96l-.88.46-.9.44c-4.78,2.34-9.83,4.05-14.97,5.15-1.96.42-3.2,2.34-2.78,4.3.36,1.7,1.87,2.86,3.54,2.86.25,0,.51-.03.76-.08.13-.03.25-.06.38-.1h.01c5.54-1.84,10.83-4.31,15.71-7.4l.91-.58.9-.6c.6-.39,1.18-.82,1.77-1.24,1.16-.85,2.31-1.72,3.41-2.65,2.22-1.83,4.29-3.81,6.23-5.91,3.86-4.21,7.12-8.94,9.55-14.04,1.2-2.55,2.23-5.14,3.17-7.76.47-1.31.91-2.63,1.31-3.97.4-1.33.76-2.68,1-4.05-.39,1.33-.9,2.62-1.43,3.89-.54,1.27-1.11,2.53-1.72,3.77Z"/><path class="cls-2" d="M46.17,44.95s-.07.06-.11.09c3.35.6,6.51,1.4,9.5,2.37.02,0,.04,0,.06,0l-3.81-7.73c-1.83,1.91-3.72,3.68-5.64,5.26Z"/><path class="cls-1" d="M40.96,13.72c4.03-.49,8.08-.58,12.09-.29,1.91.14,3.56-1.3,3.7-3.2.12-1.66-.95-3.12-2.48-3.57-.23-.07-.47-.11-.72-.13-.13,0-.25-.01-.37,0h-.01c-4.98.19-9.92.89-14.7,2.14l2.5,5.06Z"/><path class="cls-1" d="M10.46,27.21c2.88-2.6,6.05-4.84,9.41-6.71l2.7-5.33c-.28.16-.56.33-.84.5-4.66,2.83-8.91,6.3-12.5,10.33-1.78,2.02-3.41,4.12-4.98,6.27-.78,1.08-1.54,2.17-2.26,3.29-.72,1.12-1.41,2.26-2,3.44.72-1.11,1.52-2.16,2.35-3.19.83-1.02,1.69-2.02,2.58-3,1.77-1.95,3.61-3.84,5.54-5.6Z"/><path class="cls-2" d="M34.64,42.39l.88-.43.87-.45h0s0,0,0,0c.36-.19.73-.39,1.11-.6.19-.11.39-.22.58-.32.99-.58,2.16-1.27,3.3-2.03h0s0,0,0,0c2.08-1.36,4.17-2.95,6.21-4.72.3-.27.6-.53.9-.81L32.22,0,8.16,47.5c6-2.27,14.48-3.6,23.27-3.65,1.09-.46,2.16-.94,3.21-1.46Z"/></g></svg>